<svg width="20" height="19" viewBox="0 0 20 19" fill="none" xmlns="http://www.w3.org/2000/svg">
  <path fill-rule="evenodd" clip-rule="evenodd" d="M15.0262 12.9048C16.2732 11.2971 16.8609 9.27482 16.6697 7.24925C16.4785 5.22368 15.5229 3.34701 13.9971 2.00104C12.4714 0.655069 10.4902 -0.0590966 8.45663 0.00383158C6.42303 0.0667597 4.48978 0.902055 3.05019 2.33978C1.60935 3.77851 0.771323 5.7125 0.706891 7.74765C0.642459 9.78279 1.35647 11.7659 2.70342 13.2929C4.05037 14.8199 5.92889 15.7758 7.95616 15.9659C9.98344 16.1559 12.0069 15.5658 13.6142 14.3158L13.6572 14.3608L17.8992 18.6038C17.9921 18.6967 18.1024 18.7704 18.2238 18.8207C18.3452 18.871 18.4753 18.8968 18.6067 18.8968C18.7381 18.8968 18.8682 18.871 18.9896 18.8207C19.111 18.7704 19.2213 18.6967 19.3142 18.6038C19.4071 18.5109 19.4808 18.4006 19.5311 18.2792C19.5814 18.1578 19.6072 18.0277 19.6072 17.8963C19.6072 17.7649 19.5814 17.6348 19.5311 17.5134C19.4808 17.392 19.4071 17.2817 19.3142 17.1888L15.0712 12.9468C15.0566 12.9324 15.0416 12.9184 15.0262 12.9048ZM12.9502 3.75478C13.5148 4.31026 13.9638 4.97203 14.2714 5.70192C14.579 6.43181 14.739 7.21537 14.7422 8.00741C14.7454 8.79944 14.5918 9.58428 14.2902 10.3166C13.9886 11.049 13.5449 11.7144 12.9849 12.2745C12.4248 12.8345 11.7594 13.2782 11.0271 13.5798C10.2947 13.8814 9.50985 14.035 8.71781 14.0318C7.92577 14.0286 7.14221 13.8686 6.41233 13.561C5.68244 13.2534 5.02067 12.8044 4.46519 12.2398C3.35511 11.1115 2.73585 9.59023 2.74229 8.00741C2.74874 6.42458 3.38037 4.90843 4.4996 3.78919C5.61883 2.66996 7.13499 2.03833 8.71781 2.03188C10.3006 2.02544 11.8219 2.6447 12.9502 3.75478Z" fill="#A098AE"/>
</svg>
